<?xml version="1.0" encoding="UTF-8" standalone="no"?>
<svg
   width="80"
   height="80"
   viewBox="0 0 80 80"
   version="1.1"
   id="svg7"
   sodipodi:docname="EventInfo.svg"
   inkscape:version="1.1.1 (3bf5ae0d25, 2021-09-20)"
   xmlns:inkscape="http://www.inkscape.org/namespaces/inkscape"
   xmlns:sodipodi="http://sodipodi.sourceforge.net/DTD/sodipodi-0.dtd"
   xmlns="http://www.w3.org/2000/svg"
   xmlns:svg="http://www.w3.org/2000/svg">
  <sodipodi:namedview
     id="namedview9"
     pagecolor="#505050"
     bordercolor="#eeeeee"
     borderopacity="1"
     inkscape:pageshadow="0"
     inkscape:pageopacity="0"
     inkscape:pagecheckerboard="0"
     showgrid="false"
     inkscape:zoom="10.9125"
     inkscape:cx="36.609393"
     inkscape:cy="40"
     inkscape:window-width="2560"
     inkscape:window-height="1369"
     inkscape:window-x="-8"
     inkscape:window-y="-8"
     inkscape:window-maximized="1"
     inkscape:current-layer="svg7" />
  <defs
     id="defs4">
    <style
       id="style2">
      .cls-1 {
        fill: #fff;
        fill-rule: evenodd;
      }
    </style>
  </defs>
  <path
     d="m 46.618396,9.0883079 a 5.79436,5.79436 0 0 0 -5.79436,5.7943601 5.79436,5.79436 0 0 0 5.79436,5.79436 5.79436,5.79436 0 0 0 5.79436,-5.79436 5.79436,5.79436 0 0 0 -5.79436,-5.7943601 M 45.22775,27.514368 c -4.596859,0.386292 -17.151306,10.39122 -17.151306,10.39122 -0.772581,0.579437 -0.540807,0.540806 0.07725,1.62242 0.618066,1.042986 0.540807,1.120244 1.274761,0.618066 0.77258,-0.502179 2.047339,-1.313388 4.171939,-2.626776 8.189361,-5.253553 1.313387,6.875973 -2.201858,27.310749 -1.390646,10.120815 7.725814,4.905892 10.082187,3.360728 2.317743,-1.506532 8.537023,-5.794359 9.155089,-6.219279 0.849838,-0.579436 0.231775,-1.042984 -0.42492,-2.008711 -0.46355,-0.656695 -0.927098,-0.193145 -0.927098,-0.193145 -2.510889,1.661049 -7.107747,5.137666 -7.725813,2.935809 -0.733952,-2.201857 3.978794,-17.305822 6.566941,-27.697041 0.42492,-2.47226 1.583792,-7.880329 -2.89718,-7.49404 z"
     id="path902"
     style="stroke-width:3.86291;fill:#277be3;fill-opacity:1" />
</svg>
