<?xml version="1.0" encoding="UTF-8" standalone="no"?>
<svg
   width="80"
   height="80"
   viewBox="0 0 80 80"
   version="1.1"
   id="svg7"
   sodipodi:docname="FindCaseSensitive.svg"
   inkscape:version="1.1.1 (3bf5ae0d25, 2021-09-20)"
   xmlns:inkscape="http://www.inkscape.org/namespaces/inkscape"
   xmlns:sodipodi="http://sodipodi.sourceforge.net/DTD/sodipodi-0.dtd"
   xmlns="http://www.w3.org/2000/svg"
   xmlns:svg="http://www.w3.org/2000/svg">
  <sodipodi:namedview
     id="namedview9"
     pagecolor="#505050"
     bordercolor="#eeeeee"
     borderopacity="1"
     inkscape:pageshadow="0"
     inkscape:pageopacity="0"
     inkscape:pagecheckerboard="0"
     showgrid="false"
     inkscape:zoom="10.9125"
     inkscape:cx="36.609393"
     inkscape:cy="40"
     inkscape:window-width="2560"
     inkscape:window-height="1369"
     inkscape:window-x="-8"
     inkscape:window-y="-8"
     inkscape:window-maximized="1"
     inkscape:current-layer="svg7" />
  <defs
     id="defs4">
    <style
       id="style2">
      .cls-1 {
        fill: #fff;
        fill-rule: evenodd;
      }
    </style>
  </defs>
  <path
     d="m 72.150519,62.917648 c -0.232273,-0.658108 -0.580683,-1.780762 -0.774245,-3.445389 -2.59372,2.709857 -5.729412,4.064785 -9.32965,4.064785 -3.213117,0 -5.884262,-0.929094 -7.936011,-2.748569 -2.051749,-1.742051 -3.096979,-4.103498 -3.096979,-6.929492 0,-3.406677 1.277504,-6.03911 3.871224,-7.93601 2.593721,-1.8969 6.232672,-2.825994 10.955565,-2.825994 h 5.419715 v -2.477583 c 0,-1.8969 -0.580684,-3.406678 -1.742051,-4.529333 -1.161368,-1.122655 -2.903419,-1.664627 -5.148729,-1.664627 -2.013037,0 -3.677663,0.464547 -5.032592,1.393641 -1.354928,0.967806 -2.013036,2.090461 -2.013036,3.44539 h -5.651988 c 0,-1.664626 0.580684,-3.251829 1.742051,-4.800318 1.083943,-1.54849 2.748569,-2.74857 4.722894,-3.638951 1.974324,-0.812956 4.103498,-1.354929 6.542369,-1.354929 3.7938,0 6.735931,0.929094 8.865104,2.825995 2.129174,1.8969 3.251829,4.49062 3.329253,7.819873 v 15.059064 c 0,3.096979 0.387123,5.497138 1.161367,7.277901 v 0.464546 h -5.884261 m -9.290938,-4.33577 c 1.742051,0 3.406677,-0.425836 4.993879,-1.238792 1.54849,-0.812957 2.709857,-1.8969 3.406678,-3.213116 v -6.077822 h -4.374484 c -6.852067,0 -10.297457,1.819475 -10.297457,5.458426 0,1.664627 0.580684,2.825994 1.780763,3.716375 1.161368,0.890382 2.632433,1.354929 4.490621,1.354929 M 15.630642,46.310096 H 31.386526 L 23.52794,25.328059 15.630642,46.310096 m 4.568045,-29.847141 h 6.658506 L 45.09066,62.917648 H 37.619197 L 33.864109,52.968603 H 13.153059 L 9.436683,62.917648 H 1.96522 Z"
     id="path822"
     style="stroke-width:3.87122;fill:#ffffff;fill-opacity:1" />
</svg>
