<?xml version="1.0" encoding="UTF-8" standalone="no"?>
<svg
   width="80"
   height="80"
   viewBox="0 0 80 80"
   version="1.1"
   id="svg7"
   sodipodi:docname="GotoButton.svg"
   inkscape:version="1.1.1 (3bf5ae0d25, 2021-09-20)"
   xmlns:inkscape="http://www.inkscape.org/namespaces/inkscape"
   xmlns:sodipodi="http://sodipodi.sourceforge.net/DTD/sodipodi-0.dtd"
   xmlns="http://www.w3.org/2000/svg"
   xmlns:svg="http://www.w3.org/2000/svg">
  <sodipodi:namedview
     id="namedview9"
     pagecolor="#505050"
     bordercolor="#eeeeee"
     borderopacity="1"
     inkscape:pageshadow="0"
     inkscape:pageopacity="0"
     inkscape:pagecheckerboard="0"
     showgrid="false"
     inkscape:zoom="10.9125"
     inkscape:cx="36.609393"
     inkscape:cy="40"
     inkscape:window-width="2560"
     inkscape:window-height="1369"
     inkscape:window-x="-8"
     inkscape:window-y="-8"
     inkscape:window-maximized="1"
     inkscape:current-layer="g1097" />
  <defs
     id="defs4">
    <style
       id="style2">
      .cls-1 {
        fill: #fff;
        fill-rule: evenodd;
      }
    </style>
  </defs>
  <g
     id="g1097">
    <path
       d="M 53.682704,40 40.000001,53.682704 V 45.473082 H 29.05384 V 34.526919 h 10.946161 v -8.209622 l 13.682703,13.682704 m -41.04811,0 A 27.365406,27.365406 0 0 1 40.000001,12.634594 27.365406,27.365406 0 0 1 67.365407,40 27.365406,27.365406 0 0 1 40.000001,67.365407 27.365406,27.365406 0 0 1 12.634594,40 m 5.473081,0 A 21.892325,21.892325 0 0 0 40.000001,61.892325 21.892325,21.892325 0 0 0 61.892325,40 21.892325,21.892325 0 0 0 40.000001,18.107675 21.892325,21.892325 0 0 0 18.107675,40 Z"
       id="path2478"
       style="stroke-width:2.73655;fill:#8fcf5c;fill-opacity:1" />
  </g>
</svg>
