<?xml version="1.0" encoding="UTF-8" standalone="no"?>
<svg
   width="80"
   height="80"
   viewBox="0 0 80 80"
   version="1.1"
   id="svg7"
   sodipodi:docname="IconObjectDeleted.svg"
   inkscape:version="1.1.1 (3bf5ae0d25, 2021-09-20)"
   xmlns:inkscape="http://www.inkscape.org/namespaces/inkscape"
   xmlns:sodipodi="http://sodipodi.sourceforge.net/DTD/sodipodi-0.dtd"
   xmlns="http://www.w3.org/2000/svg"
   xmlns:svg="http://www.w3.org/2000/svg">
  <sodipodi:namedview
     id="namedview9"
     pagecolor="#505050"
     bordercolor="#eeeeee"
     borderopacity="1"
     inkscape:pageshadow="0"
     inkscape:pageopacity="0"
     inkscape:pagecheckerboard="0"
     showgrid="true"
     inkscape:zoom="10.9125"
     inkscape:cx="40"
     inkscape:cy="40"
     inkscape:window-width="2560"
     inkscape:window-height="1369"
     inkscape:window-x="-8"
     inkscape:window-y="-8"
     inkscape:window-maximized="1"
     inkscape:current-layer="svg7">
    <inkscape:grid
       type="xygrid"
       id="grid826"
       empcolor="#64ff57"
       empopacity="0.25098039"
       color="#ff9999"
       opacity="0.1254902" />
  </sodipodi:namedview>
  <defs
     id="defs4">
    <style
       id="style2">
      .cls-1 {
        fill: #277be3;
        fill-rule: evenodd;
      }
    </style>
  </defs>
  <path
     id="IconObject"
     class="cls-1"
     d="M 67.559708,26.209414 A 2.8938902,2.8938902 0 0 0 65.979963,23.481813 L 41.717939,9.987 a 2.873104,2.873104 0 0 0 -3.445878,0 L 14.010037,23.484122 a 2.8869615,2.8869615 0 0 0 -1.579745,2.727601 v 27.564708 a 2.8869615,2.8869615 0 0 0 1.579745,2.727602 L 38.272061,70 a 2.873104,2.873104 0 0 0 3.445878,0 L 65.979963,56.504033 a 2.8869615,2.8869615 0 0 0 1.579745,-2.727602 z m -9.331814,0 L 39.995,36.402697 21.762106,26.209414 39.995,16.017285 Z"
     style="stroke-width:1.15478;fill:#e32727;fill-opacity:1" />
</svg>
