<?xml version="1.0" encoding="UTF-8" standalone="no"?>
<svg
   width="80"
   height="80"
   viewBox="0 0 80 80"
   version="1.1"
   id="svg7"
   sodipodi:docname="IconObjectStack.svg"
   inkscape:version="1.1.1 (3bf5ae0d25, 2021-09-20)"
   xmlns:inkscape="http://www.inkscape.org/namespaces/inkscape"
   xmlns:sodipodi="http://sodipodi.sourceforge.net/DTD/sodipodi-0.dtd"
   xmlns="http://www.w3.org/2000/svg"
   xmlns:svg="http://www.w3.org/2000/svg">
  <sodipodi:namedview
     id="namedview9"
     pagecolor="#505050"
     bordercolor="#eeeeee"
     borderopacity="1"
     inkscape:pageshadow="0"
     inkscape:pageopacity="0"
     inkscape:pagecheckerboard="0"
     showgrid="false"
     inkscape:zoom="10.9125"
     inkscape:cx="40"
     inkscape:cy="40"
     inkscape:window-width="2560"
     inkscape:window-height="1369"
     inkscape:window-x="-8"
     inkscape:window-y="-8"
     inkscape:window-maximized="1"
     inkscape:current-layer="svg7" />
  <defs
     id="defs4">
    <style
       id="style2">
      .cls-1 {
        fill: #fff;
        fill-rule: evenodd;
      }
    </style>
  </defs>
  <path
     id="IconObjectStack"
     class="cls-1"
     d="m 48.626085,71.230895 a 13.054019,13.054019 0 0 0 5.676514,5.199215 20.781149,20.781149 0 0 0 8.976357,1.728489 16.499211,16.499211 0 0 0 7.601422,-1.712775 12.229058,12.229058 0 0 0 5.185466,-4.796556 12.853671,12.853671 0 0 0 1.807057,-6.570222 11.657478,11.657478 0 0 0 -1.649921,-6.210774 12.287984,12.287984 0 0 0 -5.087257,-4.452823 47.965564,47.965564 0 0 0 -8.721012,-2.787188 C 58.172057,50.567597 55.54004,49.52854 54.538302,48.516981 a 5.2247502,5.2247502 0 0 1 -1.532069,-3.873386 6.0104269,6.0104269 0 0 1 2.160611,-4.633529 10.288437,10.288437 0 0 1 6.913955,-1.920979 9.9191686,9.9191686 0 0 1 6.874671,2.115434 9.3495529,9.3495529 0 0 1 2.730227,6.255951 l 4.989047,-0.416409 a 14.142181,14.142181 0 0 0 -1.924908,-6.874671 11.455167,11.455167 0 0 0 -5.165825,-4.602101 18.027352,18.027352 0 0 0 -7.719273,-1.571354 17.20632,17.20632 0 0 0 -7.247868,1.490822 10.865909,10.865909 0 0 0 -4.949763,4.364434 12.062102,12.062102 0 0 0 -1.689205,6.181312 10.771628,10.771628 0 0 0 1.374934,5.436882 11.121254,11.121254 0 0 0 4.223012,4.065877 33.475721,33.475721 0 0 0 7.601423,2.726299 64.032652,64.032652 0 0 1 7.031806,2.131148 8.0531864,8.0531864 0 0 1 3.555187,2.575055 6.1714906,6.1714906 0 0 1 1.080306,3.590543 6.7018224,6.7018224 0 0 1 -1.11959,3.731964 7.4089314,7.4089314 0 0 1 -3.417693,2.694871 13.175799,13.175799 0 0 1 -5.264034,0.982096 13.749343,13.749343 0 0 1 -6.049711,-1.296366 8.9684997,8.9684997 0 0 1 -3.967667,-3.396088 12.767247,12.767247 0 0 1 -1.63028,-5.377957 l -4.930121,0.477299 a 15.909954,15.909954 0 0 0 2.160611,7.856767 z"
     style="stroke-width:1.96419" />
</svg>
