<?xml version="1.0" encoding="UTF-8" standalone="no"?>
<svg
   width="80"
   height="80"
   viewBox="0 0 80 80"
   version="1.1"
   id="svg7"
   sodipodi:docname="IconPointer.svg"
   inkscape:version="1.1.1 (3bf5ae0d25, 2021-09-20)"
   xmlns:inkscape="http://www.inkscape.org/namespaces/inkscape"
   xmlns:sodipodi="http://sodipodi.sourceforge.net/DTD/sodipodi-0.dtd"
   xmlns="http://www.w3.org/2000/svg"
   xmlns:svg="http://www.w3.org/2000/svg">
  <sodipodi:namedview
     id="namedview9"
     pagecolor="#505050"
     bordercolor="#eeeeee"
     borderopacity="1"
     inkscape:pageshadow="0"
     inkscape:pageopacity="0"
     inkscape:pagecheckerboard="0"
     showgrid="true"
     inkscape:zoom="10.9125"
     inkscape:cx="33.95189"
     inkscape:cy="41.282932"
     inkscape:window-width="2560"
     inkscape:window-height="1369"
     inkscape:window-x="-8"
     inkscape:window-y="-8"
     inkscape:window-maximized="1"
     inkscape:current-layer="svg7">
    <inkscape:grid
       type="xygrid"
       id="grid823"
       empcolor="#4dff3f"
       empopacity="0.25098039"
       color="#adadff"
       opacity="0.1254902" />
  </sodipodi:namedview>
  <defs
     id="defs4">
    <style
       id="style2">
      .cls-1 {
        fill: #fff;
        fill-rule: evenodd;
      }
    </style>
  </defs>
  <g
     style="fill:none"
     id="g911"
     transform="matrix(4.6721536,0,0,5,2.6227712,-2.5)" />
  <path
     d="m 40,13.749999 c -5.538751,0 -23.625001,0.76125 -23.625001,10.5 v 31.500002 c 0,9.738749 18.08625,10.5 23.625001,10.5 5.538751,0 23.625001,-0.761251 23.625001,-10.5 V 24.249999 c 0,-9.73875 -18.08625,-10.5 -23.625001,-10.5 M 40,19 c 10.15875,0 18.375,2.336249 18.375,5.249999 C 58.375,27.163751 50.15875,29.5 40,29.5 29.84125,29.5 21.625,27.163751 21.625,24.249999 21.625,21.336249 29.84125,19 40,19"
     id="path824"
     style="fill:#277be3;fill-opacity:1;stroke-width:2.625"
     sodipodi:nodetypes="csssssccsssc" />
  <path
     d="M 5.170595,57 V 43.821952 H 27 V 33.19166 L 48.392817,50.410976 27,67.630292 V 57 Z"
     id="path1334"
     style="fill:#fce838;fill-opacity:1;stroke-width:2.44808" />
</svg>
