<svg xmlns="http://www.w3.org/2000/svg" width="80" height="80" viewBox="0 0 80 80">
  <defs>
    <style>
      .cls-1 {
        fill: #82b746;
        fill-rule: evenodd;
      }
    </style>
  </defs>
  <path id="IconType" class="cls-1" d="M1332.32,377.191a5.948,5.948,0,0,0,0-8.447,6.121,6.121,0,0,0-8.59,0,5.948,5.948,0,0,0,0,8.447A6.123,6.123,0,0,0,1332.32,377.191Zm4.15-12.741a11.9,11.9,0,1,1-8.45-3.52A11.591,11.591,0,0,1,1336.47,364.45Zm-22.39-7.462a5.608,5.608,0,0,1,0,8.025,5.784,5.784,0,0,1-8.17,0,5.608,5.608,0,0,1,0-8.025A5.784,5.784,0,0,1,1314.08,356.988Zm-17.82,20.2a5.948,5.948,0,0,0,0-8.447A5.983,5.983,0,1,0,1296.26,377.191Zm4.16-12.741A12.037,12.037,0,0,1,1291.97,385,12.037,12.037,0,1,1,1300.42,364.45Zm5.28-28.791a6.121,6.121,0,1,0,4.29-1.76A5.82,5.82,0,0,0,1305.7,335.659Zm-4.16,12.741a11.914,11.914,0,1,1,8.45,3.52A11.54,11.54,0,0,1,1301.54,348.4Z" transform="translate(-1270 -316.5)"/>
</svg>
