<?xml version="1.0" encoding="UTF-8" standalone="no"?>
<svg
   width="80"
   height="80"
   viewBox="0 0 80 80"
   version="1.1"
   id="svg7"
   sodipodi:docname="IconPayloadEnum.svg"
   inkscape:version="1.1.1 (3bf5ae0d25, 2021-09-20)"
   xmlns:inkscape="http://www.inkscape.org/namespaces/inkscape"
   xmlns:sodipodi="http://sodipodi.sourceforge.net/DTD/sodipodi-0.dtd"
   xmlns="http://www.w3.org/2000/svg"
   xmlns:svg="http://www.w3.org/2000/svg">
  <sodipodi:namedview
     id="namedview9"
     pagecolor="#505050"
     bordercolor="#eeeeee"
     borderopacity="1"
     inkscape:pageshadow="0"
     inkscape:pageopacity="0"
     inkscape:pagecheckerboard="0"
     showgrid="true"
     inkscape:zoom="10.9125"
     inkscape:cx="36.701031"
     inkscape:cy="25.337915"
     inkscape:window-width="2560"
     inkscape:window-height="1369"
     inkscape:window-x="-8"
     inkscape:window-y="-8"
     inkscape:window-maximized="1"
     inkscape:current-layer="svg7">
    <inkscape:grid
       type="xygrid"
       id="grid823"
       empcolor="#4dff3f"
       empopacity="0.25098039"
       color="#e7e7ff"
       opacity="0.1254902" />
  </sodipodi:namedview>
  <defs
     id="defs4">
    <style
       id="style2">
      .cls-1 {
        fill: #fff;
        fill-rule: evenodd;
      }
    </style>
  </defs>
  <g
     style="fill:#00ff82;fill-opacity:1"
     id="g911"
     transform="scale(5)">
    <path
       fill-rule="evenodd"
       clip-rule="evenodd"
       d="M 14,2 H 8 L 7,3 V 6 H 8 V 3 h 6 v 5 h -4 v 1 h 4 L 15,8 V 3 Z M 9,6 h 4 V 7 H 9.41 L 9,6.59 Z M 7,7 H 2 L 1,8 v 5 l 1,1 H 8 L 9,13 V 8 L 8,7 Z m 1,6 H 2 V 8 H 8 V 9 Z M 3,9 h 4 v 1 H 3 Z m 0,2 h 4 v 1 H 3 Z M 9,4 h 4 V 5 H 9 Z"
       fill="#ee9d28"
       id="path902"
       style="fill:#00ff82;fill-opacity:1" />
  </g>
</svg>
