<?xml version="1.0" encoding="UTF-8" standalone="no"?>
<svg
   width="80"
   height="80"
   viewBox="0 0 80 80"
   version="1.1"
   id="svg7"
   sodipodi:docname="Interface.svg"
   inkscape:version="1.1.1 (3bf5ae0d25, 2021-09-20)"
   xmlns:inkscape="http://www.inkscape.org/namespaces/inkscape"
   xmlns:sodipodi="http://sodipodi.sourceforge.net/DTD/sodipodi-0.dtd"
   xmlns="http://www.w3.org/2000/svg"
   xmlns:svg="http://www.w3.org/2000/svg">
  <sodipodi:namedview
     id="namedview9"
     pagecolor="#505050"
     bordercolor="#eeeeee"
     borderopacity="1"
     inkscape:pageshadow="0"
     inkscape:pageopacity="0"
     inkscape:pagecheckerboard="0"
     showgrid="false"
     inkscape:zoom="10.9125"
     inkscape:cx="36.701031"
     inkscape:cy="40"
     inkscape:window-width="2560"
     inkscape:window-height="1369"
     inkscape:window-x="-8"
     inkscape:window-y="-8"
     inkscape:window-maximized="1"
     inkscape:current-layer="svg7" />
  <defs
     id="defs4">
    <style
       id="style2">
      .cls-1 {
        fill: #fff;
        fill-rule: evenodd;
      }
    </style>
  </defs>
  <g
     style="fill:none"
     id="g911"
     transform="matrix(4.9075644,0,0,4.9075644,0.73801123,3.1933332)">
    <path
       d="M 11.4965,4 C 10.655,3.9989 9.84136,4.30189 9.20557,4.85315 8.56977,5.40442 8.15465,6.16684 8.0365,7 H 4.9364 C 4.8147,6.52867 4.52533,6.11794 4.12244,5.84473 3.71955,5.57152 3.23083,5.45466 2.74792,5.51599 2.26502,5.57733 1.82106,5.81261 1.49927,6.17786 1.17747,6.54311 1,7.01322 1,7.5 1,7.98679 1.17747,8.45689 1.49927,8.82215 1.82106,9.1874 2.26502,9.42267 2.74792,9.48401 3.23083,9.54535 3.71955,9.42848 4.12244,9.15528 4.52533,8.88207 4.8147,8.47133 4.9364,8 h 3.1001 c 0.09586,0.66418 0.38067,1.28683 0.82043,1.7937 0.43977,0.5069 1.01591,0.8766 1.65987,1.0652 0.6441,0.1886 1.3287,0.1881 1.9725,-0.0015 0.6437,-0.1895 1.2194,-0.5601 1.6584,-1.0676 0.439,-0.50753 0.7229,-1.13061 0.8178,-1.79492 C 15.0603,7.33056 14.9621,6.65298 14.6827,6.04285 14.4034,5.43272 13.9545,4.91578 13.3895,4.55359 12.8246,4.19141 12.1675,3.99922 11.4965,4 Z m 0,6 C 11.002,10 10.5187,9.85332 10.1075,9.57862 9.69642,9.30391 9.37599,8.91348 9.18677,8.45667 8.99755,7.99985 8.94809,7.49728 9.04456,7.01233 9.14102,6.52738 9.37901,6.08181 9.72864,5.73218 10.0783,5.38255 10.5238,5.14456 11.0088,5.0481 c 0.4849,-0.09646 0.9875,-0.04701 1.4443,0.14221 0.4568,0.18922 0.8473,0.50965 1.122,0.92078 0.2747,0.41112 0.4214,0.89446 0.4214,1.38891 0,0.66304 -0.2634,1.29898 -0.7322,1.76783 C 12.7954,9.73667 12.1595,10 11.4965,10 Z"
       fill="#DEAC00"
       id="path902" />
  </g>
</svg>
