<?xml version="1.0" encoding="UTF-8" standalone="no"?>
<svg
   width="80"
   height="80"
   viewBox="0 0 80 80"
   version="1.1"
   id="svg7"
   sodipodi:docname="LockIcon.svg"
   inkscape:version="1.1.1 (3bf5ae0d25, 2021-09-20)"
   xmlns:inkscape="http://www.inkscape.org/namespaces/inkscape"
   xmlns:sodipodi="http://sodipodi.sourceforge.net/DTD/sodipodi-0.dtd"
   xmlns="http://www.w3.org/2000/svg"
   xmlns:svg="http://www.w3.org/2000/svg">
  <sodipodi:namedview
     id="namedview9"
     pagecolor="#505050"
     bordercolor="#eeeeee"
     borderopacity="1"
     inkscape:pageshadow="0"
     inkscape:pageopacity="0"
     inkscape:pagecheckerboard="0"
     showgrid="true"
     inkscape:zoom="7.7163025"
     inkscape:cx="17.68982"
     inkscape:cy="28.96465"
     inkscape:window-width="2560"
     inkscape:window-height="1369"
     inkscape:window-x="-8"
     inkscape:window-y="-8"
     inkscape:window-maximized="1"
     inkscape:current-layer="g911"
     inkscape:snap-object-midpoints="false">
    <inkscape:grid
       type="xygrid"
       id="grid823" />
  </sodipodi:namedview>
  <defs
     id="defs4">
    <style
       id="style2">
      .cls-1 {
        fill: #fff;
        fill-rule: evenodd;
      }
    </style>
  </defs>
  <g
     style="fill:#bcbcbc;fill-opacity:1"
     id="g911"
     transform="matrix(2.9955995,0,0,2.2278903,-7.9603952,11.296679)">
    <path
       d="m 16.010283,1.6622546 c -1.476123,0 -2.751431,0.7263926 -3.546869,1.9040752 -0.795437,1.1776824 -1.126652,2.704652 -1.126652,4.3521713 V 8.7839897 H 13.3397 V 7.9185011 c 0,-1.2487767 0.260799,-2.2317239 0.688509,-2.8684766 0.427711,-0.636752 1.009293,-1.0138582 1.982074,-1.0138582 0.975389,0 1.554363,0.3554689 1.982074,0.98913 0.42771,0.633661 0.688509,1.6289734 0.688509,2.8932048 v 0.8654886 h 2.002938 V 7.9185011 c 0,-1.6567927 -0.352079,-3.1992171 -1.147516,-4.3768996 C 18.74085,2.3639189 17.483798,1.6622546 16.010283,1.6622546 Z M 11.336762,9.575294 c -1.105789,0 -2.0029378,1.063314 -2.0029378,2.373912 v 7.913039 c 0,1.310597 0.8971488,2.373911 2.0029378,2.373911 h 9.347042 c 1.105788,0 2.002938,-1.063314 2.002938,-2.373911 v -7.913039 c 0,-1.310598 -0.89715,-2.373912 -2.002938,-2.373912 z m 4.673521,3.95652 c 0.738062,0 1.335292,0.707845 1.335292,1.582608 0,0.584204 -0.268624,1.08495 -0.667646,1.360052 v 1.805162 c 0,0.435835 -0.299919,0.791306 -0.667646,0.791306 -0.367727,0 -0.667646,-0.355471 -0.667646,-0.791306 v -1.805162 c -0.399022,-0.275102 -0.667646,-0.775848 -0.667646,-1.360052 0,-0.874763 0.59723,-1.582608 1.335292,-1.582608 z"
       id="path902"
       style="fill:#bcbcbc;fill-opacity:1;stroke-width:0.72685" />
  </g>
</svg>
