<?xml version="1.0" encoding="UTF-8" standalone="no"?>
<svg
   width="80"
   height="80"
   viewBox="0 0 80 80"
   version="1.1"
   id="svg7"
   sodipodi:docname="MoreInfo.svg"
   inkscape:version="1.1.1 (3bf5ae0d25, 2021-09-20)"
   xmlns:inkscape="http://www.inkscape.org/namespaces/inkscape"
   xmlns:sodipodi="http://sodipodi.sourceforge.net/DTD/sodipodi-0.dtd"
   xmlns="http://www.w3.org/2000/svg"
   xmlns:svg="http://www.w3.org/2000/svg">
  <sodipodi:namedview
     id="namedview9"
     pagecolor="#505050"
     bordercolor="#eeeeee"
     borderopacity="1"
     inkscape:pageshadow="0"
     inkscape:pageopacity="0"
     inkscape:pagecheckerboard="0"
     showgrid="false"
     inkscape:zoom="10.9125"
     inkscape:cx="36.609393"
     inkscape:cy="40"
     inkscape:window-width="2560"
     inkscape:window-height="1369"
     inkscape:window-x="-8"
     inkscape:window-y="-8"
     inkscape:window-maximized="1"
     inkscape:current-layer="svg7" />
  <defs
     id="defs4">
    <style
       id="style2">
      .cls-1 {
        fill: #fff;
        fill-rule: evenodd;
      }
    </style>
  </defs>
  <path
     d="m 36.500869,29.714778 h 6.99826 v -6.856816 h -6.99826 M 40,67.427262 c -15.431164,0 -27.993038,-12.307983 -27.993038,-27.42726 0,-15.11928 12.561874,-27.427264 27.993038,-27.427264 15.431161,0 27.993038,12.307984 27.993038,27.427264 0,15.119277 -12.561877,27.42726 -27.993038,27.42726 M 40,5.7159225 A 34.991298,34.284079 0 0 0 5.008702,40.000002 34.991298,34.284079 0 0 0 40,74.284078 34.991298,34.284079 0 0 0 74.991298,40.000002 34.991298,34.284079 0 0 0 40,5.7159225 M 36.500869,57.142041 h 6.99826 V 36.571593 h -6.99826 z"
     id="path902"
     style="stroke-width:3.46358;fill:#0081de;fill-opacity:1" />
</svg>
