<?xml version="1.0" encoding="UTF-8" standalone="no"?>
<svg
   width="80"
   height="80"
   viewBox="0 0 80 80"
   version="1.1"
   id="svg7"
   sodipodi:docname="Namespace.svg"
   inkscape:version="1.1.1 (3bf5ae0d25, 2021-09-20)"
   xmlns:inkscape="http://www.inkscape.org/namespaces/inkscape"
   xmlns:sodipodi="http://sodipodi.sourceforge.net/DTD/sodipodi-0.dtd"
   xmlns="http://www.w3.org/2000/svg"
   xmlns:svg="http://www.w3.org/2000/svg">
  <sodipodi:namedview
     id="namedview9"
     pagecolor="#505050"
     bordercolor="#eeeeee"
     borderopacity="1"
     inkscape:pageshadow="0"
     inkscape:pageopacity="0"
     inkscape:pagecheckerboard="0"
     showgrid="false"
     inkscape:zoom="10.9125"
     inkscape:cx="36.609393"
     inkscape:cy="40"
     inkscape:window-width="2560"
     inkscape:window-height="1369"
     inkscape:window-x="-8"
     inkscape:window-y="-8"
     inkscape:window-maximized="1"
     inkscape:current-layer="svg7" />
  <defs
     id="defs4">
    <style
       id="style2">
      .cls-1 {
        fill: #fff;
        fill-rule: evenodd;
      }
    </style>
  </defs>
  <g
     style="fill:none"
     id="g911"
     transform="matrix(3.7720504,0,0,3.7720504,9.8235968,9.8235968)">
    <path
       fill-rule="evenodd"
       clip-rule="evenodd"
       d="M 6,2.98361 V 2.97184 2 H 5.91083 C 5.59743,2 5.29407,2.06161 5.00128,2.18473 4.70818,2.30798 4.44942,2.48474 4.22578,2.71498 4.00311,2.94422 3.83792,3.19498 3.73282,3.46766 L 3.73233,3.46898 C 3.63382,3.7352 3.56814,4.01201 3.53533,4.29917 L 3.53519,4.30053 C 3.50678,4.5805 3.4987,4.86844 3.51084,5.16428 c 0.01188,0.28951 0.01782,0.57901 0.01782,0.86851 0,0.20277 -0.03892,0.39315 -0.11666,0.57228 l -4e-4,9.4e-4 C 3.33687,6.78296 3.23423,6.93866 3.10317,7.07359 2.97644,7.20405 2.82466,7.31055 2.64672,7.3925 2.4706,7.46954 2.28497,7.5082 2.08917,7.5082 H 2 V 7.6 8.4 8.4918 h 0.08917 c 0.19548,0 0.38084,0.04058 0.55684,0.12154 l 0.00141,6.2e-4 c 0.17715,0.07761 0.32835,0.18366 0.45479,0.31765 l 0.00191,0.00191 c 0.13016,0.13018 0.23247,0.28519 0.30717,0.4659 l 7.2e-4,0.00166 c 0.07785,0.17939 0.11665,0.36775 0.11665,0.56613 0,0.28949 -0.00594,0.57899 -0.01782,0.86849 -0.01214,0.2959 -0.00407,0.5858 0.02432,0.8698 l 1.9e-4,0.0017 c 0.03284,0.2831 0.09852,0.5578 0.19697,0.8238 l 5.1e-4,0.0013 c 0.1051,0.2727 0.27028,0.5235 0.49295,0.7527 0.22364,0.2303 0.4824,0.407 0.7755,0.5303 C 5.29407,13.9384 5.59743,14 5.91083,14 H 6 V 13.2 13.0164 H 5.91083 c -0.19988,0 -0.38737,-0.0387 -0.5632,-0.1156 C 5.17396,12.8191 5.02194,12.7126 4.89086,12.5818 4.76386,12.4469 4.66104,12.2911 4.58223,12.1137 4.50838,11.9346 4.47134,11.744 4.47134,11.541 c 0,-0.2283 0.00396,-0.4525 0.01187,-0.6724 0.00804,-0.2275 0.00806,-0.4491 3e-5,-0.6647 C 4.47914,9.98246 4.46084,9.76883 4.42823,9.56312 4.39513,9.35024 4.33921,9.14757 4.26039,8.95536 4.18091,8.76157 4.07258,8.57746 3.93616,8.40298 3.82345,8.25881 3.68538,8.12462 3.52283,8 3.68538,7.87538 3.82345,7.74119 3.93616,7.59702 4.07258,7.42254 4.18091,7.23843 4.26039,7.04464 4.33913,6.85263 4.39513,6.65175 4.42826,6.44285 4.46082,6.2333 4.47914,6.01973 4.48324,5.80219 4.49127,5.58262 4.49125,5.36105 4.48321,5.13749 4.4753,4.9134 4.47134,4.68725 4.47134,4.45902 4.47134,4.26019 4.50833,4.07152 4.58238,3.89205 4.66135,3.71034 4.76421,3.55475 4.89086,3.42437 5.02193,3.28942 5.17461,3.18275 5.34802,3.10513 5.5238,3.02427 5.71113,2.98361 5.91083,2.98361 Z M 10,13.0164 V 13.0282 14 h 0.0892 c 0.3134,0 0.6167,-0.0616 0.9095,-0.1847 0.2931,-0.1233 0.5519,-0.3 0.7755,-0.5303 0.2227,-0.2292 0.3879,-0.48 0.493,-0.7527 l 5e-4,-0.0013 c 0.0985,-0.2662 0.1642,-0.543 0.197,-0.8302 l 10e-5,-0.0013 c 0.0284,-0.28 0.0365,-0.5679 0.0244,-0.8638 -0.0119,-0.2895 -0.0179,-0.579 -0.0179,-0.86849 0,-0.20277 0.039,-0.39315 0.1167,-0.57228 l 4e-4,-9.4e-4 C 12.6631,9.21704 12.7658,9.06134 12.8968,8.92642 13.0236,8.79595 13.1753,8.68945 13.3533,8.6075 13.5294,8.53046 13.715,8.4918 13.9108,8.4918 H 14 V 8.4 7.6 7.5082 H 13.9108 C 13.7153,7.5082 13.53,7.46762 13.354,7.38666 L 13.3526,7.38604 C 13.1754,7.30844 13.0242,7.20238 12.8978,7.06839 L 12.8959,7.06648 C 12.7657,6.9363 12.6634,6.78129 12.5887,6.60058 L 12.588,6.59892 C 12.5101,6.41953 12.4713,6.23117 12.4713,6.03279 c 0,-0.2895 0.006,-0.579 0.0179,-0.86851 0.0121,-0.29586 0.004,-0.5858 -0.0244,-0.86974 l -2e-4,-0.00169 C 12.4318,4.00971 12.3661,3.73502 12.2677,3.46897 l -5e-4,-0.00131 C 12.1621,3.19499 11.9969,2.94422 11.7742,2.71498 11.5506,2.48474 11.2918,2.30798 10.9987,2.18473 10.7059,2.06161 10.4026,2 10.0892,2 H 10 v 0.8 0.18361 h 0.0892 c 0.1999,0 0.3873,0.03869 0.5632,0.11556 0.1736,0.08175 0.3257,0.18819 0.4567,0.31906 0.127,0.13482 0.2299,0.29066 0.3087,0.46805 0.0738,0.17912 0.1109,0.36968 0.1109,0.57274 0,0.22825 -0.004,0.45243 -0.0119,0.6724 -0.008,0.22752 -0.0081,0.44907 0,0.66463 0.0041,0.22149 0.0224,0.43512 0.055,0.64083 0.0331,0.21288 0.089,0.41555 0.1678,0.60776 0.0795,0.19379 0.1878,0.3779 0.3242,0.55238 0.1127,0.14417 0.2508,0.27836 0.4134,0.40298 -0.1626,0.12462 -0.3007,0.25881 -0.4134,0.40298 -0.1364,0.17448 -0.2447,0.35859 -0.3242,0.55238 -0.0787,0.19201 -0.1347,0.39289 -0.1679,0.60179 -0.0325,0.20955 -0.0508,0.42312 -0.0549,0.64065 -0.0081,0.2196 -0.0081,0.4411 0,0.6647 0.0079,0.2241 0.0119,0.4503 0.0119,0.6785 0,0.1988 -0.037,0.3875 -0.1111,0.5669 -0.079,0.1818 -0.1818,0.3373 -0.3085,0.4677 -0.131,0.135 -0.2837,0.2417 -0.4571,0.3193 -0.1758,0.0808 -0.3631,0.1215 -0.5628,0.1215 z"
       fill="#c5c5c5"
       id="path902" />
  </g>
</svg>
