<?xml version="1.0" encoding="UTF-8" standalone="no"?>
<svg
   width="80"
   height="80"
   viewBox="0 0 80 80"
   version="1.1"
   id="svg7"
   sodipodi:docname="ProjectFolder.svg"
   inkscape:version="1.1.1 (3bf5ae0d25, 2021-09-20)"
   xmlns:inkscape="http://www.inkscape.org/namespaces/inkscape"
   xmlns:sodipodi="http://sodipodi.sourceforge.net/DTD/sodipodi-0.dtd"
   xmlns="http://www.w3.org/2000/svg"
   xmlns:svg="http://www.w3.org/2000/svg">
  <sodipodi:namedview
     id="namedview9"
     pagecolor="#505050"
     bordercolor="#eeeeee"
     borderopacity="1"
     inkscape:pageshadow="0"
     inkscape:pageopacity="0"
     inkscape:pagecheckerboard="0"
     showgrid="false"
     inkscape:zoom="10.9125"
     inkscape:cx="36.701031"
     inkscape:cy="40"
     inkscape:window-width="2560"
     inkscape:window-height="1369"
     inkscape:window-x="-8"
     inkscape:window-y="-8"
     inkscape:window-maximized="1"
     inkscape:current-layer="svg7" />
  <defs
     id="defs4">
    <style
       id="style2">
      .cls-1 {
        fill: #fff;
        fill-rule: evenodd;
      }
    </style>
  </defs>
  <g
     style="fill:#d38d5f"
     id="g911"
     transform="matrix(2.6872853,0,0,2.6872853,5.0747061,5.0652911)">
    <path
       d="M 3,3 C 1.34375,3 0,4.34375 0,6 v 14 c 0,1.035156 0.542969,1.933594 1.34375,2.46875 0.125,0.08203 0.238281,0.15625 0.375,0.21875 0.039063,0.02344 0.082031,0.04297 0.125,0.0625 0.347656,0.160156 0.726563,0.25 1.125,0.25 h 16 c 1.601563,0 3.097656,-0.964844 3.71875,-2.4375 v -0.03125 l 3.09375,-8.3125 V 12.1875 c 0.296875,-0.730469 0.304688,-1.578125 -0.125,-2.21875 C 25.222656,9.316406 24.425781,9 23.625,9 H 22 C 22,7.34375 20.65625,6 19,6 H 11 C 11,4.34375 9.65625,3 8,3 Z m 4.625,8 h 16 c 0.304688,0 0.367188,0.08203 0.375,0.09375 0.0078,0.01172 0.05469,0.06641 -0.0625,0.34375 V 11.5 L 20.84375,19.78125 20.8125,19.8125 C 20.554688,20.359375 19.566406,21 18.96875,21 h -16 C 2.664063,21 2.632813,20.917969 2.625,20.90625 2.617188,20.894531 2.570313,20.839844 2.6875,20.5625 v -0.03125 l 3.09375,-8.3125 C 5.785156,12.207031 5.808594,12.199219 5.8125,12.1875 6.070313,11.640625 7.027344,11 7.625,11 Z"
       id="path902"
       style="fill:#d38d5f" />
  </g>
</svg>
