<?xml version="1.0" encoding="UTF-8" standalone="no"?>
<svg
   width="80pt"
   height="80pt"
   viewBox="0 0 80 80"
   version="1.1"
   id="svg32"
   sodipodi:docname="Project.svg"
   inkscape:version="1.1.1 (3bf5ae0d25, 2021-09-20)"
   xmlns:inkscape="http://www.inkscape.org/namespaces/inkscape"
   xmlns:sodipodi="http://sodipodi.sourceforge.net/DTD/sodipodi-0.dtd"
   xmlns="http://www.w3.org/2000/svg"
   xmlns:svg="http://www.w3.org/2000/svg">
  <defs
     id="defs36" />
  <sodipodi:namedview
     id="namedview34"
     pagecolor="#505050"
     bordercolor="#eeeeee"
     borderopacity="1"
     inkscape:pageshadow="0"
     inkscape:pageopacity="0"
     inkscape:pagecheckerboard="0"
     inkscape:document-units="pt"
     showgrid="false"
     inkscape:zoom="5.2171314"
     inkscape:cx="79.641467"
     inkscape:cy="106.66781"
     inkscape:window-width="2560"
     inkscape:window-height="1369"
     inkscape:window-x="-8"
     inkscape:window-y="-8"
     inkscape:window-maximized="1"
     inkscape:current-layer="svg32" />
  <path
     d="M 74.132693,30.598302 C 70.421662,16.748548 55.397723,8.9750273 41.643126,13.041179 32.505113,15.870323 26.11975,23.290551 24.211655,31.794811 23.057969,37.4326 18.942655,41.960859 13.615826,43.38818 l -0.710245,0.190308 c -6.0370704,1.617628 -9.4166451,7.471224 -7.7990176,13.508297 3.8061898,14.204892 22.5138306,12.998379 50.9235816,5.386012 0,0 24.85853,-6.660825 18.102548,-31.874495 M 12.209,55.183693 c -0.570925,-2.130732 0.468944,-3.93184 2.599674,-4.502767 l 0.710244,-0.190309 c 7.812682,-2.093402 14.03323,-8.708234 16.036479,-16.857372 1.3185,-6.443185 6.048905,-11.516878 12.345945,-13.584783 4.616583,-1.23701 10.064061,-0.793566 14.471673,1.450985 4.407609,2.244552 7.42023,6.385361 8.562084,10.646825 C 71.597682,49.547262 56.968026,54.60912 54.127053,55.370358 18.969987,64.790667 13.446018,59.800296 12.209,55.183693 M 57.956903,49.776732 41.232011,25.711747 c 0.875055,-0.995707 2.20039,-1.731446 3.975999,-2.207222 2.485852,-0.666083 4.806892,-0.526765 7.57821,-0.127483 L 64.481573,40.03544 c -0.98887,4.832408 -3.614038,7.819533 -6.52467,9.74129 m -29.39363,-3.161957 6.215553,8.991884 c -5.421983,1.072196 -9.613787,1.053534 -12.289951,1.009371 L 19.476251,52.4752 c 3.551219,-0.951547 6.461852,-2.873304 9.087022,-5.860427 m 23.90199,5.394673 C 48.2038,53.151302 44.297459,54.198003 41.006208,54.699274 L 31.87319,41.921698 c 1.299835,-2.251382 2.504517,-4.857888 2.903799,-7.629205 0.329626,-1.610796 1.014373,-3.316747 1.794275,-4.667578 z"
     id="path920"
     style="fill:#cb2859;fill-opacity:1;stroke-width:3.67647" />
</svg>
