<?xml version="1.0" encoding="UTF-8" standalone="no"?>
<svg
   width="80"
   height="80"
   viewBox="0 0 80 80"
   version="1.1"
   id="svg7"
   sodipodi:docname="RedDotExDisabled.svg"
   inkscape:version="1.1.1 (3bf5ae0d25, 2021-09-20)"
   xmlns:inkscape="http://www.inkscape.org/namespaces/inkscape"
   xmlns:sodipodi="http://sodipodi.sourceforge.net/DTD/sodipodi-0.dtd"
   xmlns="http://www.w3.org/2000/svg"
   xmlns:svg="http://www.w3.org/2000/svg">
  <sodipodi:namedview
     id="namedview9"
     pagecolor="#505050"
     bordercolor="#eeeeee"
     borderopacity="1"
     inkscape:pageshadow="0"
     inkscape:pageopacity="0"
     inkscape:pagecheckerboard="0"
     showgrid="false"
     inkscape:zoom="10.9125"
     inkscape:cx="36.609393"
     inkscape:cy="40"
     inkscape:window-width="2560"
     inkscape:window-height="1369"
     inkscape:window-x="-8"
     inkscape:window-y="-8"
     inkscape:window-maximized="1"
     inkscape:current-layer="g1097" />
  <defs
     id="defs4">
    <style
       id="style2">
      .cls-1 {
        fill: #fff;
        fill-rule: evenodd;
      }
    </style>
  </defs>
  <g
     id="g1097">
    <path
       d="m 40,64.806414 c -13.624019,0 -24.714775,-11.090756 -24.714775,-24.714776 0,-13.624021 11.090756,-24.714777 24.714775,-24.714777 13.624021,0 24.714777,11.090756 24.714777,24.714777 0,13.62402 -11.090756,24.714776 -24.714777,24.714776 M 40,9.1981672 A 30.893471,30.893471 0 0 0 9.1065304,40.091638 30.893471,30.893471 0 0 0 40,70.985109 30.893471,30.893471 0 0 0 70.893471,40.091638 30.893471,30.893471 0 0 0 40,9.1981672 M 43.089347,24.644902 H 36.910653 V 37.002291 H 24.553266 v 6.178694 h 12.357387 v 12.357388 h 6.178694 V 43.180985 H 55.446735 V 37.002291 H 43.089347 Z"
       id="path1715"
       style="stroke-width:3.08935;fill:#960000;fill-opacity:1" />
  </g>
</svg>
