<svg xmlns="http://www.w3.org/2000/svg" width="80" height="80" viewBox="0 0 80 80">
  <defs>
    <style>
      .cls-1 {
        fill: #8a8a8a;
        fill-rule: evenodd;
      }
    </style>
  </defs>
  <path id="RefreshArrows" class="cls-1" d="M690.768,335.488a0.93,0.93,0,0,0-.107-0.074,28.845,28.845,0,0,0-11.319-2.422h-0.054c-0.639-.006-1.267.019-1.895,0.06-0.439.024-.87,0.068-1.307,0.111-0.067.007-.137,0.01-0.2,0.018v0a28.8,28.8,0,0,0-13.72,5.247l-2.835-4.18-4.148,17.457,17.417-1.88-3.579-3.376a18.351,18.351,0,0,1,7.582-2.8s1.7-.1,2.584-0.089a18.772,18.772,0,1,1-18.562,15.791l-9.913-3.743A29.006,29.006,0,1,0,690.768,335.488Z" transform="translate(-639 -322)"/>
</svg>
