<?xml version="1.0" encoding="UTF-8" standalone="no"?>
<svg
   width="80"
   height="80"
   viewBox="0 0 80 80"
   version="1.1"
   id="svg7"
   sodipodi:docname="Search.svg"
   inkscape:version="1.1.1 (3bf5ae0d25, 2021-09-20)"
   xmlns:inkscape="http://www.inkscape.org/namespaces/inkscape"
   xmlns:sodipodi="http://sodipodi.sourceforge.net/DTD/sodipodi-0.dtd"
   xmlns="http://www.w3.org/2000/svg"
   xmlns:svg="http://www.w3.org/2000/svg">
  <sodipodi:namedview
     id="namedview9"
     pagecolor="#505050"
     bordercolor="#eeeeee"
     borderopacity="1"
     inkscape:pageshadow="0"
     inkscape:pageopacity="0"
     inkscape:pagecheckerboard="0"
     showgrid="false"
     inkscape:zoom="10.9125"
     inkscape:cx="36.609393"
     inkscape:cy="40"
     inkscape:window-width="2560"
     inkscape:window-height="1369"
     inkscape:window-x="-8"
     inkscape:window-y="-8"
     inkscape:window-maximized="1"
     inkscape:current-layer="svg7" />
  <defs
     id="defs4">
    <style
       id="style2">
      .cls-1 {
        fill: #fff;
        fill-rule: evenodd;
      }
    </style>
  </defs>
  <g
     style="fill:#c4c4c4;fill-opacity:1"
     id="g911"
     transform="matrix(2.5849452,0,0,2.5849452,6.3086217,6.3086217)">
    <path
       d="m 10,0.1875 c -5.421875,0 -9.8125,4.390625 -9.8125,9.8125 0,5.421875 4.390625,9.8125 9.8125,9.8125 2.289063,0 4.394531,-0.808594 6.0625,-2.125 l 0.875,0.875 c -0.367187,0.691406 -0.238281,1.574219 0.34375,2.15625 l 4.59375,4.625 c 0.714844,0.714844 1.878906,0.714844 2.59375,0 l 0.875,-0.875 c 0.714844,-0.714844 0.714844,-1.878906 0,-2.59375 l -4.625,-4.59375 c -0.585937,-0.585937 -1.464844,-0.6875 -2.15625,-0.3125 l -0.875,-0.875 C 19.011719,14.421875 19.8125,12.300781 19.8125,10 19.8125,4.578125 15.421875,0.1875 10,0.1875 Z M 10,2 c 4.417969,0 8,3.582031 8,8 0,4.417969 -3.582031,8 -8,8 C 5.582031,18 2,14.417969 2,10 2,5.582031 5.582031,2 10,2 Z M 4.9375,7.46875 c -0.515625,0.835938 -0.8125,1.820313 -0.8125,2.875 0,3.027344 2.441406,5.46875 5.46875,5.46875 1.167969,0 2.265625,-0.378906 3.15625,-1 -0.238281,0.02734 -0.503906,0.03125 -0.75,0.03125 -3.914062,0 -7.0625,-3.148437 -7.0625,-7.0625 0,-0.105469 -0.00391,-0.207031 0,-0.3125 z"
       id="path902"
       style="fill:#c4c4c4;fill-opacity:1" />
  </g>
</svg>
