<?xml version="1.0" encoding="UTF-8" standalone="no"?>
<svg
   width="80"
   height="80"
   viewBox="0 0 80 80"
   version="1.1"
   id="svg7"
   sodipodi:docname="Type_ValueType.svg"
   inkscape:version="1.1.1 (3bf5ae0d25, 2021-09-20)"
   xmlns:inkscape="http://www.inkscape.org/namespaces/inkscape"
   xmlns:sodipodi="http://sodipodi.sourceforge.net/DTD/sodipodi-0.dtd"
   xmlns="http://www.w3.org/2000/svg"
   xmlns:svg="http://www.w3.org/2000/svg">
  <sodipodi:namedview
     id="namedview9"
     pagecolor="#505050"
     bordercolor="#eeeeee"
     borderopacity="1"
     inkscape:pageshadow="0"
     inkscape:pageopacity="0"
     inkscape:pagecheckerboard="0"
     showgrid="false"
     inkscape:zoom="10.9125"
     inkscape:cx="36.701031"
     inkscape:cy="40"
     inkscape:window-width="2560"
     inkscape:window-height="1369"
     inkscape:window-x="-8"
     inkscape:window-y="-8"
     inkscape:window-maximized="1"
     inkscape:current-layer="svg7" />
  <defs
     id="defs4">
    <style
       id="style2">
      .cls-1 {
        fill: #fff;
        fill-rule: evenodd;
      }
    </style>
  </defs>
  <path
     d="m 39.999999,15.157503 c -18.217831,0 -33.1233288,5.200363 -33.1233288,11.593164 0,6.392804 14.9054978,11.593168 33.1233288,11.593168 18.217832,0 33.12333,-5.200364 33.12333,-11.593168 C 73.123329,20.357866 58.217832,15.157503 40,15.157503 M 6.8766702,37.548874 v 15.700459 c 0,6.392801 14.9054978,11.593164 33.1233288,11.593164 18.217832,0 33.12333,-5.200363 33.12333,-11.593164 V 37.548874 C 70.904065,39.072547 68.419817,40.231863 65.604334,41.19244 58.615311,43.643567 49.771382,44.968499 40,44.968499 c -9.771382,0 -18.615312,-1.324932 -25.604333,-3.776059 -2.815484,-0.960577 -5.2997341,-2.119893 -7.5189968,-3.643566 z"
     id="path902"
     style="fill:#2887fc;fill-opacity:1;stroke-width:3.31234" />
</svg>
