<?xml version="1.0" encoding="UTF-8" standalone="no"?>
<svg
   width="80"
   height="80"
   viewBox="0 0 80 80"
   version="1.1"
   id="svg7"
   sodipodi:docname="Variable.svg"
   inkscape:version="1.1.1 (3bf5ae0d25, 2021-09-20)"
   xmlns:inkscape="http://www.inkscape.org/namespaces/inkscape"
   xmlns:sodipodi="http://sodipodi.sourceforge.net/DTD/sodipodi-0.dtd"
   xmlns="http://www.w3.org/2000/svg"
   xmlns:svg="http://www.w3.org/2000/svg">
  <sodipodi:namedview
     id="namedview9"
     pagecolor="#505050"
     bordercolor="#eeeeee"
     borderopacity="1"
     inkscape:pageshadow="0"
     inkscape:pageopacity="0"
     inkscape:pagecheckerboard="0"
     showgrid="false"
     inkscape:zoom="10.9125"
     inkscape:cx="36.609393"
     inkscape:cy="40"
     inkscape:window-width="2560"
     inkscape:window-height="1369"
     inkscape:window-x="-8"
     inkscape:window-y="-8"
     inkscape:window-maximized="1"
     inkscape:current-layer="svg7" />
  <defs
     id="defs4">
    <style
       id="style2">
      .cls-1 {
        fill: #fff;
        fill-rule: evenodd;
      }
    </style>
  </defs>
  <g
     style="fill:none"
     id="g911"
     transform="matrix(3.7658685,0,0,3.7658685,9.873052,7.9901178)">
    <path
       fill-rule="evenodd"
       clip-rule="evenodd"
       d="M 2,5 H 4 V 4 H 1.5 L 1,4.5 v 8 L 1.5,13 H 4 V 12 H 2 Z M 14.5,4 H 12 v 1 h 2 v 7 h -2 v 1 h 2.5 L 15,12.5 v -8 z M 11.76,6.56995 12,7 V 9.51001 L 11.7,9.95996 7.19995,11.96 H 6.73999 l -2.5,-1.5 L 4,10.03 V 7.53003 l 0.30005,-0.46008 4.5,-2 H 9.26001 Z M 5,9.70996 6.5,10.61 V 9.28003 L 5,8.38 Z M 5.57996,7.56006 7.03003,8.43005 10.42,6.93005 8.96997,6.06006 Z M 7.53003,10.73 11.03,9.17004 V 7.77002 L 7.53003,9.31995 Z"
       fill="#0081de"
       id="path902" />
  </g>
</svg>
