<?xml version="1.0" encoding="UTF-8" standalone="no"?>
<svg
   width="80"
   height="80"
   viewBox="0 0 80 80"
   version="1.1"
   id="svg7"
   sodipodi:docname="Workspace.svg"
   inkscape:version="1.1.1 (3bf5ae0d25, 2021-09-20)"
   xmlns:inkscape="http://www.inkscape.org/namespaces/inkscape"
   xmlns:sodipodi="http://sodipodi.sourceforge.net/DTD/sodipodi-0.dtd"
   xmlns="http://www.w3.org/2000/svg"
   xmlns:svg="http://www.w3.org/2000/svg">
  <sodipodi:namedview
     id="namedview9"
     pagecolor="#505050"
     bordercolor="#eeeeee"
     borderopacity="1"
     inkscape:pageshadow="0"
     inkscape:pageopacity="0"
     inkscape:pagecheckerboard="0"
     showgrid="false"
     inkscape:zoom="10.9125"
     inkscape:cx="36.701031"
     inkscape:cy="40"
     inkscape:window-width="2560"
     inkscape:window-height="1369"
     inkscape:window-x="-8"
     inkscape:window-y="-8"
     inkscape:window-maximized="1"
     inkscape:current-layer="svg7" />
  <defs
     id="defs4">
    <style
       id="style2">
      .cls-1 {
        fill: #fff;
        fill-rule: evenodd;
      }
    </style>
  </defs>
  <path
     d="m 34.328339,56.826944 a 1.8905537,1.5297221 0 0 1 1.890553,1.52972 1.8905537,1.5297221 0 0 1 -1.890553,1.529722 1.8905537,1.5297221 0 0 1 -1.890553,-1.529722 1.8905537,1.5297221 0 0 1 1.890553,-1.52972 m 11.343322,0 a 1.8905537,1.5297221 0 0 1 1.890553,1.52972 1.8905537,1.5297221 0 0 1 -1.890553,1.529722 1.8905537,1.5297221 0 0 1 -1.890553,-1.529722 1.8905537,1.5297221 0 0 1 1.890553,-1.52972 M 32.437786,35.410835 a 3.7811075,3.0594443 0 0 1 3.781106,3.059444 3.7811075,3.0594443 0 0 1 -3.781106,3.059445 3.7811075,3.0594443 0 0 1 -3.781109,-3.059445 3.7811075,3.0594443 0 0 1 3.781109,-3.059444 m 15.124428,0 a 3.7811075,3.0594443 0 0 1 3.781109,3.059444 3.7811075,3.0594443 0 0 1 -3.781109,3.059445 3.7811075,3.0594443 0 0 1 -3.781106,-3.059445 3.7811075,3.0594443 0 0 1 3.781106,-3.059444 m 15.12443,21.416109 c 0,6.76137 -10.171178,12.237775 -22.686645,12.237775 -12.515465,0 -22.686643,-5.476405 -22.686643,-12.237774 0,-2.753499 1.701497,-5.292838 4.537327,-7.342666 -2.83583,-3.059444 -4.537327,-6.883749 -4.537327,-11.013999 l 0.453732,-3.732522 c -2.041798,0.458917 -4.499518,0.458917 -6.503504,0 -3.8567311,-0.856643 -9.6796352,-4.375005 -8.8099807,-6.82256 0.8696533,-2.447556 8.0915687,-2.906473 11.9482987,-1.98864 2.230854,0.520106 4.612951,1.835668 6.01196,3.243012 l 2.155233,-2.478151 C 20.300431,23.32603 21.094462,13.994725 32.437786,10.935281 l -0.340302,0.428322 v 0 c -1.058709,1.346155 -3.781106,5.598784 -0.907466,10.18795 2.722398,-0.917833 5.671662,-1.437939 8.809981,-1.437939 3.138319,0 6.087582,0.520106 8.809983,1.437939 2.873639,-4.589166 0.151243,-8.841795 -0.907468,-10.18795 l -0.3403,-0.428322 c 11.343323,3.059444 12.137355,12.390749 9.868691,15.756137 l 2.155231,2.478151 c 1.399011,-1.407344 3.781106,-2.722906 6.011962,-3.243012 3.856728,-0.917833 11.078643,-0.458916 11.948299,1.98864 0.869654,2.447555 -4.953251,5.965917 -8.809981,6.82256 -2.003986,0.458917 -4.461706,0.458917 -6.503506,0 l 0.453734,3.732522 c 0,4.13025 -1.701497,7.954555 -4.537329,11.014 2.835832,2.049827 4.537329,4.589166 4.537329,7.342665 M 39.999999,50.708056 c -8.356248,0 -15.124428,2.7535 -15.124428,6.118888 0,3.365386 6.76818,6.118886 15.124428,6.118886 8.35625,0 15.12443,-2.7535 15.12443,-6.118886 0,-3.365388 -6.76818,-6.118888 -15.12443,-6.118888 m 0,-6.118889 c 4.234842,0 8.205004,0.642484 11.608001,1.71329 2.193042,-2.111018 3.516429,-4.772733 3.516429,-7.832178 A 15.12443,12.237777 0 0 0 39.999999,26.232502 15.12443,12.237777 0 0 0 24.875571,38.470279 c 0,3.059445 1.323387,5.72116 3.51643,7.832178 3.402996,-1.070806 7.373158,-1.71329 11.607998,-1.71329 m 7.902515,-33.225564 z"
     id="path902"
     style="fill:#ffdd55;stroke-width:3.40118" />
</svg>
